HIERARCHY
ROOT Hips
{
	OFFSET -0.179506 -22.333345 2.821913
	CHANNELS 6 Xposition Yposition Zposition Zrotation Yrotation Xrotation 
	JOINT LeftUpLeg
	{
		OFFSET 6.951974 -9.140623 -0.681533
		CHANNELS 3 Zrotation Yrotation Xrotation
		JOINT LeftLeg
		{
			OFFSET 3.427654 -37.519855 -0.449580
			CHANNELS 3 Zrotation Yrotation Xrotation
			JOINT LeftFoot
			{
				OFFSET -1.359570 -39.796059 -4.369333
				CHANNELS 3 Zrotation Yrotation Xrotation
				JOINT LeftToe
				{
					OFFSET 2.635814 -5.579078 11.928840
					CHANNELS 3 Zrotation Yrotation Xrotation
					End Site
					{
						OFFSET 0.000000 0.000000 0.000000
					}
				}
			}
		}
	}
	JOINT RightUpLeg
	{
		OFFSET -6.767048 -9.052170 -0.431982
		CHANNELS 3 Zrotation Yrotation Xrotation
		JOINT RightLeg
		{
			OFFSET -3.829005 -38.256897 -0.885003
			CHANNELS 3 Zrotation Yrotation Xrotation
			JOINT RightFoot
			{
				OFFSET 1.577377 -39.841461 -4.231180
				CHANNELS 3 Zrotation Yrotation Xrotation
				JOINT RightToe
				{
					OFFSET -2.537174 -4.814398 12.334795
					CHANNELS 3 Zrotation Yrotation Xrotation
					End Site
					{
						OFFSET 0.000000 0.000000 0.000000
					}
				}
			}
		}
	}
	JOINT Spine
	{
		OFFSET -0.253288 10.896323 -2.669631
		CHANNELS 3 Zrotation Yrotation Xrotation
		JOINT Spine1
		{
			OFFSET 0.548704 13.518043 0.109247
			CHANNELS 3 Zrotation Yrotation Xrotation
			JOINT Spine2
			{
				OFFSET 0.145701 5.292222 2.542457
				CHANNELS 3 Zrotation Yrotation Xrotation
				JOINT Neck
				{
					OFFSET -0.277840 21.387037 -4.285703
					CHANNELS 3 Zrotation Yrotation Xrotation
					JOINT Head
					{
						OFFSET 0.515184 6.496960 5.134897
						CHANNELS 3 Zrotation Yrotation Xrotation
						End Site
						{
							OFFSET 0.000000 0.000000 0.000000
						}
					}
				}
				JOINT LeftShoulder
				{
					OFFSET 7.884473 12.174932 -3.408961
					CHANNELS 3 Zrotation Yrotation Xrotation
					JOINT LeftArm
					{
						OFFSET 9.097692 3.046888 -0.886815
						CHANNELS 3 Zrotation Yrotation Xrotation
						JOINT LeftForeArm
						{
							OFFSET 25.961220 -1.277207 -2.745643
							CHANNELS 3 Zrotation Yrotation Xrotation
							JOINT LeftHand
							{
								OFFSET 24.923361 0.898606 -0.117091
								CHANNELS 3 Zrotation Yrotation Xrotation
								End Site
								{
									OFFSET 0.000000 0.000000 0.000000
								}
							}
						}
					}
				}
				JOINT RightShoulder
				{
					OFFSET -8.175920 11.883285 -3.861528
					CHANNELS 3 Zrotation Yrotation Xrotation
					JOINT RightArm
					{
						OFFSET -9.601238 3.255117 -0.914307
						CHANNELS 3 Zrotation Yrotation Xrotation
						JOINT RightForeArm
						{
							OFFSET -25.374195 -1.332924 -2.140099
							CHANNELS 3 Zrotation Yrotation Xrotation
							JOINT RightHand
							{
								OFFSET -25.529810 0.777228 -0.555919
								CHANNELS 3 Zrotation Yrotation Xrotation
								End Site
								{
									OFFSET 0.000000 0.000000 0.000000
								}
							}
						}
					}
				}
			}
		}
	}
}
MOTION
Frames: 6
Frame Time: 0.033333
-336.343170 235.804871 91.021713 -138.198630 -5.685262 86.276812 5.850469 -6.527369 -35.491864 -6.046699 13.899387 55.487953 0.307358 8.211981 -15.995693 nan nan nan -5.530244 5.243993 -9.009008 -2.100133 4.570617 55.449399 2.056283 -8.682885 -19.908072 nan nan nan -0.485359 4.376364 22.090564 3.753888 -2.446888 2.387289 0.889942 -2.164730 0.796732 -2.570592 -1.660529 -12.579036 -1.905266 -3.044345 -1.770643 -21.688799 6.242712 9.642121 -65.494622 8.843037 7.523312 2.757635 -45.027616 11.205880 17.762792 -23.647111 -30.807021 22.312591 -0.892243 0.871405 46.459531 -2.732743 11.217635 -16.995934 50.439966 -6.385148 -1.575482 21.783213 -18.996001 
-334.915985 234.840958 90.590675 -137.944753 -6.143551 86.252840 5.493197 -6.930705 -35.971391 -5.769564 15.558515 59.951254 1.576528 8.719100 -18.654266 nan nan nan -5.973065 5.307073 -10.514053 -1.421948 3.887236 55.451632 2.302132 -9.338229 -17.640619 nan nan nan -0.709714 4.236063 22.360054 3.815999 -2.384112 2.123769 0.619445 -2.412389 1.482089 -2.508567 -1.670345 -13.696494 -2.223777 -2.782346 -0.707033 -22.058916 5.879991 9.187790 -64.985811 7.257928 8.348536 3.915909 -44.653218 9.304381 18.653639 -23.775624 -31.552470 22.719696 -0.781032 0.638942 46.840689 -2.419950 12.339312 -17.617625 47.588318 -7.260655 -0.767631 21.239221 -17.973919 
-333.517029 233.943970 90.182198 -137.742963 -6.456496 86.280847 5.035731 -6.906907 -36.271782 -5.232144 16.829491 64.327456 2.027620 9.096723 -21.197195 nan nan nan -6.472094 5.485184 -12.165966 -0.930173 2.868545 56.995108 0.863530 -11.356083 -28.690122 nan nan nan -0.607910 4.190580 22.736674 3.632574 -2.346472 1.980897 0.357642 -2.635555 1.589730 -2.172538 -1.088970 -14.178307 -2.557001 -3.298177 -0.146719 -22.051003 5.164802 8.935911 -64.994729 5.974258 8.363550 5.334401 -44.031409 7.720614 18.103258 -24.712100 -30.480780 23.396445 -0.569247 0.459693 46.920120 -2.772929 12.233155 -17.055385 45.264352 -6.502316 0.447389 21.296833 -17.111675 
-332.160858 233.013046 89.739502 -137.379832 -6.438110 86.549302 4.739733 -7.233000 -36.117324 -5.260901 17.643292 67.654308 3.170412 10.372895 -23.399303 nan nan nan -6.578176 5.484646 -13.981953 -0.427136 2.240986 57.872196 0.765373 -12.143405 -28.688331 nan nan nan -0.468486 3.444698 22.753751 3.626323 -2.189211 0.987604 0.113509 -2.619142 2.705628 -2.148637 -1.214544 -14.768721 -2.713198 -2.867564 0.548346 -22.565989 4.830660 8.677938 -64.570629 4.439349 8.862725 6.347855 -43.722115 6.384241 18.636959 -24.066330 -30.195359 23.573457 -0.447384 0.697200 47.159020 -2.410501 12.674173 -16.386779 42.725880 -6.076671 0.845887 20.540933 -16.836070 
-330.857330 232.103851 89.376060 -137.067575 -6.452544 86.864329 4.449636 -7.627170 -36.046734 -4.435919 18.729116 71.577957 2.343468 11.102749 -22.885755 nan nan nan -6.684102 5.708328 -15.880839 -0.505638 1.561818 58.769755 0.663925 -12.376814 -28.467696 nan nan nan -0.362592 2.927881 23.087616 3.495722 -1.986892 0.368527 0.099944 -2.624169 2.838400 -2.131131 -1.523412 -14.926357 -2.639531 -2.231100 0.317317 -23.216840 4.661380 7.960757 -63.967510 3.423821 9.497420 7.401955 -43.372167 5.190416 18.646992 -24.031097 -29.531922 23.855472 -0.613982 0.409814 47.050351 -2.548751 12.903383 -14.701946 40.249326 -4.671488 1.194793 20.204528 -16.325076 
-329.575623 231.181641 89.057671 -136.774294 -6.468225 87.259236 4.022747 -7.958112 -35.770181 -3.709749 19.520780 74.995143 1.479636 11.283775 -23.592690 nan nan nan -6.815418 6.138676 -17.879515 -0.411573 1.154933 59.717318 0.608046 -12.476065 -28.539892 nan nan nan -0.255686 2.534177 22.870622 3.514575 -1.852964 0.545367 0.012756 -2.721727 2.672581 -2.235990 -1.537864 -14.850107 -2.730946 -1.855627 -0.225218 -23.862627 4.085415 7.762148 -63.481823 2.175252 9.824104 8.982146 -43.001008 3.320009 17.552618 -24.546321 -28.142282 24.285341 -0.558887 0.341715 46.868145 -2.609888 13.032703 -13.425047 37.641351 -3.666414 2.344747 19.853880 -15.604982 
